<?xml version="1.0" encoding="UTF-8"?><!DOCTYPE svg PUBLIC "-//W3C//DTD SVG 1.1//EN" "http://www.w3.org/Graphics/SVG/1.1/DTD/svg11.dtd"><svg xmlns="http://www.w3.org/2000/svg" xmlns:xlink="http://www.w3.org/1999/xlink"><symbol id="icon-grid" viewBox="0 0 490.667 490.667"><path d="M480 192c5.891 0 10.667-4.776 10.667-10.667s-4.776-10.667-10.667-10.667h-32V64h32c5.891 0 10.667-4.776 10.667-10.667S485.891 42.667 480 42.667h-32v-32C448 4.776 443.224 0 437.333 0s-10.667 4.776-10.667 10.667v32H320v-32C320 4.776 315.224 0 309.333 0s-10.667 4.776-10.667 10.667v32H192v-32C192 4.776 187.224 0 181.333 0s-10.667 4.776-10.667 10.667v32H64v-32C64 4.776 59.224 0 53.333 0S42.667 4.776 42.667 10.667v32h-32C4.776 42.667 0 47.442 0 53.333S4.776 64 10.667 64h32v106.667h-32C4.776 170.667 0 175.442 0 181.333S4.776 192 10.667 192h32v106.667h-32C4.776 298.667 0 303.442 0 309.333S4.776 320 10.667 320h32v106.667h-32C4.776 426.667 0 431.442 0 437.333S4.776 448 10.667 448h32v32c0 5.891 4.776 10.667 10.667 10.667S64 485.891 64 480v-32h106.667v32c0 5.891 4.776 10.667 10.667 10.667s10.667-4.776 10.667-10.667v-32h106.667v32c0 5.891 4.776 10.667 10.667 10.667S320 485.891 320 480v-32h106.667v32c0 5.891 4.776 10.667 10.667 10.667S448 485.891 448 480v-32h32c5.891 0 10.667-4.776 10.667-10.667s-4.776-10.667-10.667-10.667h-32V320h32c5.891 0 10.667-4.776 10.667-10.667s-4.776-10.667-10.667-10.667h-32V192h32zM426.667 64v106.667H320V64h106.667zm-128 0v106.667H192V64h106.667zm0 128v106.667H192V192h106.667zM64 64h106.667v106.667H64V64zm0 128h106.667v106.667H64V192zm0 234.667V320h106.667v106.667H64zm128 0V320h106.667v106.667H192zm234.667 0H320V320h106.667v106.667zm0-128H320V192h106.667v106.667z" fill="#455a64"/><path d="M53.333 490.667c-5.891 0-10.667-4.776-10.667-10.667V10.667C42.667 4.776 47.442 0 53.333 0S64 4.776 64 10.667V480c0 5.891-4.776 10.667-10.667 10.667zM181.333 490.667c-5.891 0-10.667-4.776-10.667-10.667V10.667C170.667 4.776 175.442 0 181.333 0S192 4.776 192 10.667V480c0 5.891-4.776 10.667-10.667 10.667zM309.333 490.667c-5.891 0-10.667-4.776-10.667-10.667V10.667C298.667 4.776 303.442 0 309.333 0S320 4.776 320 10.667V480c0 5.891-4.776 10.667-10.667 10.667zM437.333 490.667c-5.891 0-10.667-4.776-10.667-10.667V10.667C426.667 4.776 431.442 0 437.333 0S448 4.776 448 10.667V480c0 5.891-4.776 10.667-10.667 10.667z"/><path d="M480 448H10.667C4.776 448 0 443.224 0 437.333s4.776-10.667 10.667-10.667H480c5.891 0 10.667 4.776 10.667 10.667S485.891 448 480 448zM480 320H10.667C4.776 320 0 315.224 0 309.333s4.776-10.667 10.667-10.667H480c5.891 0 10.667 4.776 10.667 10.667S485.891 320 480 320zM480 192H10.667C4.776 192 0 187.224 0 181.333s4.776-10.667 10.667-10.667H480c5.891 0 10.667 4.776 10.667 10.667S485.891 192 480 192zM480 64H10.667C4.776 64 0 59.224 0 53.333s4.776-10.667 10.667-10.667H480c5.891 0 10.667 4.776 10.667 10.667S485.891 64 480 64z"/></symbol><symbol id="icon-heart" viewBox="0 0 471.701 471.701"><path d="M433.601 67.001c-24.7-24.7-57.4-38.2-92.3-38.2s-67.7 13.6-92.4 38.3l-12.9 12.9-13.1-13.1c-24.7-24.7-57.6-38.4-92.5-38.4-34.8 0-67.6 13.6-92.2 38.2-24.7 24.7-38.3 57.5-38.2 92.4 0 34.9 13.7 67.6 38.4 92.3l187.8 187.8c2.6 2.6 6.1 4 9.5 4 3.4 0 6.9-1.3 9.5-3.9l188.2-187.5c24.7-24.7 38.3-57.5 38.3-92.4.1-34.9-13.4-67.7-38.1-92.4zm-19.2 165.7l-178.7 178-178.3-178.3c-19.6-19.6-30.4-45.6-30.4-73.3s10.7-53.7 30.3-73.2c19.5-19.5 45.5-30.3 73.1-30.3 27.7 0 53.8 10.8 73.4 30.4l22.6 22.6c5.3 5.3 13.8 5.3 19.1 0l22.4-22.4c19.6-19.6 45.7-30.4 73.3-30.4 27.6 0 53.6 10.8 73.2 30.3 19.6 19.6 30.3 45.6 30.3 73.3.1 27.7-10.7 53.7-30.3 73.3z"/></symbol><symbol id="icon-home" viewBox="0 0 486.196 486.196"><path d="M481.708 220.456l-228.8-204.6c-.4-.4-.8-.7-1.3-1-5-4.8-13-5-18.3-.3l-228.8 204.6c-5.6 5-6 13.5-1.1 19.1 2.7 3 6.4 4.5 10.1 4.5 3.2 0 6.4-1.1 9-3.4l41.2-36.9v238.6c0 18.7 15.2 34 34 34H169.908c17.6 0 31.9-14.3 31.9-31.9v-121.3c0-2.7 2.2-4.9 4.9-4.9h72.9c2.7 0 4.9 2.2 4.9 4.9v121.3c0 17.6 14.3 31.9 31.9 31.9h72.2c19 0 34-18.7 34-42.6v-228.7l41.2 36.9c2.6 2.3 5.8 3.4 9 3.4 3.7 0 7.4-1.5 10.1-4.5 4.8-5.6 4.3-14.1-1.2-19.1zm-86.2 66.7v145.1c0 9.7-4.8 15.6-7 15.6h-72.2c-2.7 0-4.9-2.2-4.9-4.9v-121.1c0-17.6-14.3-31.9-31.9-31.9h-72.9c-17.6 0-31.9 14.3-31.9 31.9v121.3c0 2.7-2.2 4.9-4.9 4.9H97.608c-3.8 0-7-3.1-7-7v-262.8l151.8-135.6 153.1 136.9v107.6z"/></symbol><symbol id="icon-marks" viewBox="0 0 24 24"><path d="m12 10c-2.206 0-4-1.794-4-4s1.794-4 4-4 4 1.794 4 4-1.794 4-4 4zm0-6.5c-1.379 0-2.5 1.121-2.5 2.5s1.121 2.5 2.5 2.5 2.5-1.121 2.5-2.5-1.121-2.5-2.5-2.5z"/><path d="m19.25 20c-.414 0-.75-.336-.75-.75v-2.5c0-1.792-1.458-3.25-3.25-3.25h-6.5c-1.792 0-3.25 1.458-3.25 3.25v2.5c0 .414-.336.75-.75.75s-.75-.336-.75-.75v-2.5c0-2.619 2.131-4.75 4.75-4.75h6.5c2.619 0 4.75 2.131 4.75 4.75v2.5c0 .414-.336.75-.75.75z"/><path d="m.75 6.5c-.414 0-.75-.336-.75-.75v-3c0-1.517 1.233-2.75 2.75-2.75h3c.414 0 .75.336.75.75s-.336.75-.75.75h-3c-.689 0-1.25.561-1.25 1.25v3c0 .414-.336.75-.75.75z"/><path d="m5.75 24h-3c-1.517 0-2.75-1.233-2.75-2.75v-3c0-.414.336-.75.75-.75s.75.336.75.75v3c0 .689.561 1.25 1.25 1.25h3c.414 0 .75.336.75.75s-.336.75-.75.75z"/><path d="m23.25 6.5c-.414 0-.75-.336-.75-.75v-3c0-.689-.561-1.25-1.25-1.25h-3c-.414 0-.75-.336-.75-.75s.336-.75.75-.75h3c1.517 0 2.75 1.233 2.75 2.75v3c0 .414-.336.75-.75.75z"/><path d="m21.25 24h-3c-.414 0-.75-.336-.75-.75s.336-.75.75-.75h3c.689 0 1.25-.561 1.25-1.25v-3c0-.414.336-.75.75-.75s.75.336.75.75v3c0 1.517-1.233 2.75-2.75 2.75z"/></symbol><symbol id="icon-plane" viewBox="0 0 469.038 469.038"><path d="M465.023 4.079c-3.9-3.9-9.9-5-14.9-2.8l-442 193.7c-4.7 2.1-7.8 6.6-8.1 11.7s2.4 9.9 6.8 12.4l154.1 87.4 91.5 155.7c2.4 4.1 6.9 6.7 11.6 6.7h.8c5.1-.3 9.5-3.4 11.6-8.1l191.5-441.8c2.2-5.1 1.1-11-2.9-14.9zm-70.3 50.9l-226.2 224.7-124.9-70.8 351.1-153.9zm-132.5 370.6l-74.5-126.9 227.5-226-153 352.9z"/></symbol><symbol id="icon-web" viewBox="0 0 511.999 511.999"><path d="M437.019 74.981C388.667 26.628 324.38 0 256 0 187.62 0 123.332 26.628 74.981 74.98 26.628 123.332 0 187.62 0 256s26.628 132.667 74.981 181.019c48.351 48.352 112.639 74.98 181.019 74.98 68.381 0 132.667-26.628 181.02-74.981C485.371 388.667 512 324.379 512 255.999s-26.629-132.667-74.981-181.018zM96.216 96.216c22.511-22.511 48.938-39.681 77.742-50.888-7.672 9.578-14.851 20.587-21.43 32.969-7.641 14.38-14.234 30.173-19.725 47.042-19.022-3.157-36.647-7.039-52.393-11.595a230.423 230.423 0 0115.806-17.528zm-33.987 43.369c18.417 5.897 39.479 10.87 62.461 14.809-6.4 27.166-10.167 56.399-11.066 86.591H30.536c2.36-36.233 13.242-70.813 31.693-101.4zm-1.635 230.053c-17.455-29.899-27.769-63.481-30.059-98.623h83.146c.982 29.329 4.674 57.731 10.858 84.186-23.454 3.802-45.045 8.649-63.945 14.437zm35.622 46.146a229.917 229.917 0 01-17.831-20.055c16.323-4.526 34.571-8.359 54.214-11.433 5.53 17.103 12.194 33.105 19.928 47.662 7.17 13.493 15.053 25.349 23.51 35.505-29.61-11.183-56.769-28.629-79.821-51.679zm144.768 62.331c-22.808-6.389-44.384-27.217-61.936-60.249-6.139-11.552-11.531-24.155-16.15-37.587 24.73-2.722 51.045-4.331 78.086-4.709v102.545zm0-132.578c-29.988.409-59.217 2.292-86.59 5.507-6.038-24.961-9.671-51.978-10.668-80.028h97.259v74.521zm0-104.553h-97.315c.911-28.834 4.602-56.605 10.828-82.201 27.198 3.4 56.366 5.468 86.487 6.06v76.141zm0-106.176c-27.146-.547-53.403-2.317-77.958-5.205 4.591-13.292 9.941-25.768 16.022-37.215 17.551-33.032 39.128-53.86 61.936-60.249v102.669zm209.733 6.372c17.874 30.193 28.427 64.199 30.749 99.804h-83.088c-.889-29.844-4.584-58.749-10.85-85.647 23.133-3.736 44.456-8.489 63.189-14.157zm-34.934-44.964a230.122 230.122 0 0116.914 18.91c-16.073 4.389-33.972 8.114-53.204 11.112-5.548-17.208-12.243-33.305-20.02-47.941-6.579-12.382-13.758-23.391-21.43-32.969 28.802 11.207 55.23 28.377 77.74 50.888zm-144.767 174.8h97.259c-1.004 28.268-4.686 55.49-10.81 80.612-27.194-3.381-56.349-5.43-86.449-6.006v-74.606zm0-30.032v-76.041c30.005-.394 59.257-2.261 86.656-5.464 6.125 25.403 9.756 52.932 10.659 81.505h-97.315zm-.002-208.845h.001c22.808 6.389 44.384 27.217 61.936 60.249 6.178 11.627 11.601 24.318 16.24 37.848-24.763 2.712-51.108 4.309-78.177 4.674V32.139zm.002 445.976V375.657c27.12.532 53.357 2.286 77.903 5.156-4.579 13.232-9.911 25.654-15.967 37.053-17.552 33.032-39.128 53.86-61.936 60.249zm144.767-62.331c-23.051 23.051-50.21 40.496-79.821 51.678 8.457-10.156 16.34-22.011 23.51-35.504 7.62-14.341 14.198-30.088 19.68-46.906 19.465 3.213 37.473 7.186 53.515 11.859a230.268 230.268 0 01-16.884 18.873zm34.823-44.775c-18.635-5.991-40-11.032-63.326-15.01 6.296-26.68 10.048-55.36 11.041-84.983h83.146c-2.328 35.678-12.918 69.753-30.861 99.993z"/></symbol></svg>