<svg viewBox="0 0 490.667 490.667"><path d="M480 192c5.891 0 10.667-4.776 10.667-10.667s-4.776-10.667-10.667-10.667h-32V64h32c5.891 0 10.667-4.776 10.667-10.667S485.891 42.667 480 42.667h-32v-32C448 4.776 443.224 0 437.333 0s-10.667 4.776-10.667 10.667v32H320v-32C320 4.776 315.224 0 309.333 0s-10.667 4.776-10.667 10.667v32H192v-32C192 4.776 187.224 0 181.333 0s-10.667 4.776-10.667 10.667v32H64v-32C64 4.776 59.224 0 53.333 0S42.667 4.776 42.667 10.667v32h-32C4.776 42.667 0 47.442 0 53.333S4.776 64 10.667 64h32v106.667h-32C4.776 170.667 0 175.442 0 181.333S4.776 192 10.667 192h32v106.667h-32C4.776 298.667 0 303.442 0 309.333S4.776 320 10.667 320h32v106.667h-32C4.776 426.667 0 431.442 0 437.333S4.776 448 10.667 448h32v32c0 5.891 4.776 10.667 10.667 10.667S64 485.891 64 480v-32h106.667v32c0 5.891 4.776 10.667 10.667 10.667s10.667-4.776 10.667-10.667v-32h106.667v32c0 5.891 4.776 10.667 10.667 10.667S320 485.891 320 480v-32h106.667v32c0 5.891 4.776 10.667 10.667 10.667S448 485.891 448 480v-32h32c5.891 0 10.667-4.776 10.667-10.667s-4.776-10.667-10.667-10.667h-32V320h32c5.891 0 10.667-4.776 10.667-10.667s-4.776-10.667-10.667-10.667h-32V192h32zM426.667 64v106.667H320V64h106.667zm-128 0v106.667H192V64h106.667zm0 128v106.667H192V192h106.667zM64 64h106.667v106.667H64V64zm0 128h106.667v106.667H64V192zm0 234.667V320h106.667v106.667H64zm128 0V320h106.667v106.667H192zm234.667 0H320V320h106.667v106.667zm0-128H320V192h106.667v106.667z" fill="#455a64"/><path d="M53.333 490.667c-5.891 0-10.667-4.776-10.667-10.667V10.667C42.667 4.776 47.442 0 53.333 0S64 4.776 64 10.667V480c0 5.891-4.776 10.667-10.667 10.667zM181.333 490.667c-5.891 0-10.667-4.776-10.667-10.667V10.667C170.667 4.776 175.442 0 181.333 0S192 4.776 192 10.667V480c0 5.891-4.776 10.667-10.667 10.667zM309.333 490.667c-5.891 0-10.667-4.776-10.667-10.667V10.667C298.667 4.776 303.442 0 309.333 0S320 4.776 320 10.667V480c0 5.891-4.776 10.667-10.667 10.667zM437.333 490.667c-5.891 0-10.667-4.776-10.667-10.667V10.667C426.667 4.776 431.442 0 437.333 0S448 4.776 448 10.667V480c0 5.891-4.776 10.667-10.667 10.667z"/><path d="M480 448H10.667C4.776 448 0 443.224 0 437.333s4.776-10.667 10.667-10.667H480c5.891 0 10.667 4.776 10.667 10.667S485.891 448 480 448zM480 320H10.667C4.776 320 0 315.224 0 309.333s4.776-10.667 10.667-10.667H480c5.891 0 10.667 4.776 10.667 10.667S485.891 320 480 320zM480 192H10.667C4.776 192 0 187.224 0 181.333s4.776-10.667 10.667-10.667H480c5.891 0 10.667 4.776 10.667 10.667S485.891 192 480 192zM480 64H10.667C4.776 64 0 59.224 0 53.333s4.776-10.667 10.667-10.667H480c5.891 0 10.667 4.776 10.667 10.667S485.891 64 480 64z"/></svg>